<?xml version="1.0" encoding="iso-8859-1"?>
<!-- Generator: Adobe Illustrator 19.0.0, SVG Export Plug-In . SVG Version: 6.00 Build 0)  -->
<svg xmlns="http://www.w3.org/2000/svg" xmlns:xlink="http://www.w3.org/1999/xlink" version="1.1" id="Capa_1" x="0px" y="0px" viewBox="0 0 511.606 511.606" style="enable-background:new 0 0 511.606 511.606;" xml:space="preserve" width="512px" height="512px">
<path d="M504.267,195.003L316.533,7.27c-9.6-9.6-24.533-9.6-34.133,0L7.2,281.403  c-9.6,9.6-9.6,24.533,0,34.133l188.8,188.8c9.6,9.6,24.533,9.6,34.133,0l275.2-275.2  C513.867,220.603,513.867,204.603,504.267,195.003z" fill="#xxxxxx"/>
<path d="M389.067,37.136H122.4c-13.867,0-24.533,10.667-24.533,24.533v388.267  c0,13.867,10.667,24.533,24.533,24.533h266.667c13.867,0,24.533-10.667,24.533-24.533V61.67  C413.6,47.803,402.933,37.136,389.067,37.136z" fill="#xxxxxx"/>
<g>
	<path d="M335.733,231.27c0,36.267-80,92.8-80,92.8s-80-56.533-80-92.8c0-24.533,19.2-43.733,43.733-43.733   c14.933,0,28.8,7.467,36.267,19.2c7.467-11.733,21.333-19.2,36.267-19.2C316.533,187.536,335.733,206.736,335.733,231.27z" fill="#xxxxxx"/>
	<path d="M180,125.67l-4.267-10.667h-19.2l-4.267,10.667H141.6l18.133-46.933H170.4l20.267,46.933H180z    M165.067,92.603l-5.333,13.867h11.733L165.067,92.603z" fill="#xxxxxx"/>
	<path d="M331.467,385.936l4.267,10.667h19.2l4.267-10.667h10.667l-18.133,46.933h-10.667L320.8,385.936   L331.467,385.936L331.467,385.936z M346.4,419.003l5.333-13.867H340L346.4,419.003z" fill="#xxxxxx"/>
</g>
<g>
</g>
<g>
</g>
<g>
</g>
<g>
</g>
<g>
</g>
<g>
</g>
<g>
</g>
<g>
</g>
<g>
</g>
<g>
</g>
<g>
</g>
<g>
</g>
<g>
</g>
<g>
</g>
<g>
</g>
</svg>
