<?xml version="1.0" encoding="iso-8859-1"?>
<!-- Generator: Adobe Illustrator 19.0.0, SVG Export Plug-In . SVG Version: 6.00 Build 0)  -->
<svg xmlns="http://www.w3.org/2000/svg" xmlns:xlink="http://www.w3.org/1999/xlink" version="1.1" id="Capa_1" x="0px" y="0px" viewBox="0 0 512 512" style="enable-background:new 0 0 512 512;" xml:space="preserve" width="512px" height="512px">
<g>
	<path d="M61.793,0h388.414c9.751,0,17.655,7.904,17.655,17.655v476.69c0,9.751-7.904,17.655-17.655,17.655   H61.793c-9.751,0-17.655-7.905-17.655-17.655V17.655C44.138,7.904,52.042,0,61.793,0z" fill="#xxxxxx"/>
	<g>
		<path d="M119.578,32.448c-1.223-3.568-4.577-5.965-8.349-5.966h-10.595c-3.772,0-7.127,2.397-8.349,5.966    L71.099,94.241c-1.57,4.608,0.888,9.616,5.493,11.195s9.618-0.869,11.206-5.471l4.008-11.69h28.251l4.008,11.69    c1.018,2.989,3.555,5.206,6.653,5.815s6.285-0.484,8.359-2.865c2.073-2.381,2.716-5.689,1.687-8.674L119.578,32.448z     M97.859,70.621l8.072-23.543l8.072,23.543H97.859z" fill="#xxxxxx"/>
		<path d="M435.414,406.547c-2.214-0.764-4.642-0.615-6.745,0.415c-2.104,1.03-3.711,2.855-4.466,5.073    l-4.008,11.69h-28.251l-4.008-11.69c-1.018-2.989-3.555-5.206-6.653-5.815c-3.098-0.609-6.285,0.484-8.358,2.865    c-2.073,2.381-2.716,5.689-1.687,8.674l21.185,61.793c1.223,3.568,4.577,5.965,8.349,5.966h10.595    c3.772,0,7.126-2.397,8.349-5.966l21.185-61.793c0.76-2.214,0.608-4.64-0.421-6.742    C439.451,408.914,437.628,407.306,435.414,406.547z M406.069,464.922l-8.072-23.543h16.144L406.069,464.922z" fill="#xxxxxx"/>
		<path d="M248.574,143.81L179.62,251.072c-1.869,2.908-1.869,6.639,0,9.547l68.954,107.262    c1.624,2.527,4.422,4.054,7.426,4.054s5.801-1.527,7.426-4.054l68.954-107.262c1.869-2.908,1.869-6.639,0-9.547L263.426,143.81    c-1.624-2.527-4.422-4.054-7.426-4.054S250.199,141.284,248.574,143.81z" fill="#xxxxxx"/>
		<path d="M103.403,115.991l-23.477,36.703c-0.636,0.996-0.636,2.271,0,3.267l23.477,36.703    c0.55,0.864,1.504,1.387,2.528,1.387c1.024,0,1.978-0.523,2.528-1.387l23.477-36.703c0.636-0.996,0.636-2.271,0-3.267    l-23.477-36.703c-0.55-0.864-1.504-1.387-2.528-1.387C104.907,114.604,103.953,115.127,103.403,115.991z" fill="#xxxxxx"/>
		<path d="M403.541,319.026l-23.477,36.703c-0.636,0.996-0.636,2.271,0,3.267l23.477,36.703    c0.55,0.864,1.504,1.387,2.528,1.387s1.978-0.523,2.528-1.387l23.477-36.703c0.637-0.996,0.637-2.271,0-3.267l-23.477-36.703    c-0.55-0.864-1.504-1.387-2.528-1.387S404.091,318.162,403.541,319.026L403.541,319.026z" fill="#xxxxxx"/>
	</g>
</g>
<g>
</g>
<g>
</g>
<g>
</g>
<g>
</g>
<g>
</g>
<g>
</g>
<g>
</g>
<g>
</g>
<g>
</g>
<g>
</g>
<g>
</g>
<g>
</g>
<g>
</g>
<g>
</g>
<g>
</g>
</svg>
