<svg id="Layer_1" height="512" viewBox="0 0 512 512" width="512" xmlns="http://www.w3.org/2000/svg" data-name="Layer 1"><path d="m397.067 162.034-141.137-141.122-140.925 142.182a97.3 97.3 0 1 0 137.588 137.619 4.924 4.924 0 0 1 3.739-1.461l.939.038a5 5 0 0 1 3.279 1.408 97.3 97.3 0 0 0 136.517-138.664z"/><path d="m256.668 325.108c-6.3 21.339-15.8 37.114-29.713 57.779h60.436c-13.461-19.759-23.955-35.834-30.723-57.779z"/><path d="m154.65 455.082v-.359c0-12.05-7.46-16.5-16.926-16.5h-14.848c-2.511 0-4.16 1.578-4.16 3.371v45.618c0 2.3 2.8 3.443 5.6 3.443s5.594-1.148 5.594-3.443v-15.49h7.1c9.89 0 17.64-4.59 17.64-16.64zm-24.745-7.1h7.1c4.016 0 6.455 2.3 6.455 7.173v.788c0 4.878-2.439 7.173-6.455 7.173h-7.1z"/><path d="m215.436 474.161v-19.007c0-12.337-7.748-16.928-17.645-16.928s-17.573 4.591-17.573 16.928v19.007c0 12.337 7.675 16.927 17.573 16.927s17.645-4.588 17.645-16.927zm-24.029 0v-19.007c0-4.949 2.367-7.173 6.384-7.173s6.455 2.224 6.455 7.173v19.007c0 4.949-2.438 7.173-6.455 7.173s-6.384-2.224-6.384-7.173z"/><path d="m249.467 438.226c-2.8 0-5.595 1-5.595 3.371v45.618c0 2.3 2.8 3.443 5.595 3.443s5.595-1.148 5.595-3.443v-12.982l3.012-3.873 12.265 18.648a4.326 4.326 0 0 0 3.874 2.08c3.227 0 6.741-2.8 6.741-5.594a3.559 3.559 0 0 0 -.573-1.865l-14.848-22.737 11.767-14.776a3.639 3.639 0 0 0 .717-2.152c0-2.8-3.73-5.738-6.6-5.738a3.359 3.359 0 0 0 -2.94 1.578l-13.413 19.008v-17.212c-.002-2.37-2.799-3.374-5.597-3.374z"/><path d="m336.146 447.981c2.151 0 3.371-2.3 3.371-4.949 0-2.295-1-4.806-3.371-4.806h-25.535c-2.438 0-4.878 1.148-4.878 3.443v45.546c0 2.3 2.44 3.443 4.878 3.443h25.535c2.367 0 3.371-2.51 3.371-4.806 0-2.654-1.22-4.949-3.371-4.949h-19.223v-12.193h10.759c2.367 0 3.371-2.295 3.371-4.232 0-2.3-1.219-4.375-3.371-4.375h-10.759v-12.122z"/><path d="m391.408 489.008a3.823 3.823 0 0 0 3.586 2.08c3.3 0 7.029-3.012 7.029-5.81a2.36 2.36 0 0 0 -.359-1.291l-8.75-15.851c5.021-1.937 8.679-6.527 8.679-14.56 0-11.691-7.819-15.35-17.645-15.35h-14.848a3.339 3.339 0 0 0 -3.443 3.371v45.618c0 2.3 2.8 3.443 5.595 3.443s5.6-1.148 5.6-3.443v-17.286h4.733zm-14.56-41.027h7.1c4.017 0 6.455 1.65 6.455 6.671s-2.438 6.67-6.455 6.67h-7.1z"/></svg>